<?xml version="1.0" encoding="utf-8"?>
<!-- Generator: Adobe Illustrator 22.0.1, SVG Export Plug-In . SVG Version: 6.00 Build 0)  -->
<svg version="1.1" id="Layer_1" xmlns="http://www.w3.org/2000/svg" xmlns:xlink="http://www.w3.org/1999/xlink" x="0px" y="0px"
	 viewBox="0 0 1780 828.5" style="enable-background:new 0 0 1780 828.5;" xml:space="preserve">
<style type="text/css">
	.st0{clip-path:url(#SVGID_2_);fill:#FFFFFF;}
	.st1{clip-path:url(#SVGID_2_);fill:url(#SVGID_3_);}
	.st2{display:none;opacity:0.7;clip-path:url(#SVGID_2_);}
	.st3{display:inline;fill:#FFFFFF;}
	.st4{display:none;fill:url(#sky_x2F_space_2_);}
	.st5{display:none;}
	.st6{display:inline;fill:#575C7A;}
	.st7{fill:#575C7A;}
	.st8{opacity:0.38;}
	.st9{fill:url(#river_2_);}
	.st10{fill:#445763;}
	.st11{fill:url(#SVGID_4_);}
	.st12{fill:url(#SVGID_5_);}
	.st13{opacity:3.000000e-02;fill:#FFFFFF;enable-background:new    ;}
	.st14{opacity:4.000000e-02;fill:#FFFFFF;enable-background:new    ;}
	.st15{opacity:6.000000e-02;fill:#FFFFFF;enable-background:new    ;}
	.st16{opacity:0.1;fill:#FFFFFF;enable-background:new    ;}
	.st17{fill:url(#SVGID_6_);}
	.st18{fill:url(#SVGID_7_);}
	.st19{fill:url(#SVGID_8_);}
	.st20{opacity:5.000000e-02;fill:#FFFFFF;enable-background:new    ;}
</style>
<g id="Layer_3">
	<g>
		<defs>
			<rect id="SVGID_1_" x="0.6" width="1785.6" height="829.5"/>
		</defs>
		<clipPath id="SVGID_2_">
			<use xlink:href="#SVGID_1_"  style="overflow:visible;"/>
		</clipPath>
		<rect x="0.4" y="-107.4" class="st0" width="1804.3" height="1039.7"/>
		<linearGradient id="SVGID_3_" gradientUnits="userSpaceOnUse" x1="916.1943" y1="1283.9259" x2="894.7786" y2="-557.8231">
			<stop  offset="0" style="stop-color:#77A9D4"/>
			<stop  offset="0.5112" style="stop-color:#D7F5D4"/>
			<stop  offset="0.6425" style="stop-color:#E9FAE8"/>
			<stop  offset="0.7993" style="stop-color:#F9FEF9"/>
			<stop  offset="0.9157" style="stop-color:#FFFFFF"/>
		</linearGradient>
		<rect x="3.9" y="-105.9" class="st1" width="1804.3" height="1039.7"/>
		<g class="st2">
			<path class="st3" d="M490,205.7c0,3.4-2.7,6.1-6.1,6.1s-6.1-2.7-6.1-6.1s2.7-6.1,6.1-6.1S490,202.3,490,205.7z"/>
			<path class="st3" d="M536.2,217.6c0,5.2-4.2,9.4-9.4,9.4c-5.2,0-9.4-4.2-9.4-9.4c0-5.2,4.2-9.4,9.4-9.4
				C531.9,208.2,536.2,212.4,536.2,217.6z"/>
			<circle class="st3" cx="569.6" cy="256.2" r="5.4"/>
			<circle class="st3" cx="978.3" cy="416.3" r="3.6"/>
			<circle class="st3" cx="1071.1" cy="441.3" r="8.7"/>
			<circle class="st3" cx="1021.1" cy="448.4" r="3.6"/>
			<circle class="st3" cx="1169.2" cy="498.4" r="4.2"/>
			<circle class="st3" cx="1103.8" cy="459.1" r="5.1"/>
			<circle class="st3" cx="325.1" cy="120" r="7.1"/>
			<path class="st3" d="M383.4,107.5c0,5.6-4.5,10.1-10.2,10.1c-5.6,0-10.1-4.5-10.1-10.1s4.5-10.2,10.1-10.2
				C378.9,97.4,383.4,101.9,383.4,107.5z"/>
			<path class="st3" d="M667.7,286.6c0,3.3-2.7,6-5.9,6s-5.9-2.7-5.9-6c0-3.3,2.7-5.9,5.9-5.9S667.7,283.3,667.7,286.6z"/>
			<circle class="st3" cx="690.3" cy="315.1" r="10.7"/>
			<path class="st3" d="M770.1,328.2c0,1.3-1.1,2.4-2.4,2.4c-1.3,0-2.4-1.1-2.4-2.4c0-1.3,1.1-2.4,2.4-2.4
				C769,325.8,770.1,326.9,770.1,328.2z"/>
			<circle class="st3" cx="433.4" cy="148.6" r="3.6"/>
			<circle class="st3" cx="501.2" cy="128.3" r="8.9"/>
			<circle class="st3" cx="458.3" cy="154.5" r="4.8"/>
			<ellipse class="st3" cx="1236.4" cy="499.6" rx="2.4" ry="2.4"/>
			<path class="st3" d="M1429.8,532.9c0,2.3-1.9,4.2-4.2,4.2s-4.2-1.9-4.2-4.2c0-2.3,1.9-4.2,4.2-4.2S1429.8,530.5,1429.8,532.9z"/>
			<circle class="st3" cx="1464.9" cy="547.1" r="7.1"/>
		</g>
	</g>
</g>
<linearGradient id="sky_x2F_space_2_" gradientUnits="userSpaceOnUse" x1="913.0287" y1="674.0087" x2="876.3555" y2="-15.179" gradientTransform="matrix(1 0 0 1 0 111.9999)">
	<stop  offset="0" style="stop-color:#F3C187"/>
	<stop  offset="5.274168e-02" style="stop-color:#F4AA8D"/>
	<stop  offset="0.1186" style="stop-color:#DF7D66"/>
	<stop  offset="0.3059" style="stop-color:#4E5763"/>
	<stop  offset="0.5913" style="stop-color:#0C3C4C"/>
	<stop  offset="1" style="stop-color:#0E1C22"/>
</linearGradient>
<rect id="sky_x2F_space_1_" x="0.6" y="88.6" class="st4" width="1782.3" height="595"/>
<g id="stars_1_" class="st5">
	
		<rect x="160.8" y="272.2" transform="matrix(0.7071 -0.7071 0.7071 0.7071 -146.378 195.795)" class="st6" width="4.8" height="4.8"/>
	<rect x="304.6" y="215.2" transform="matrix(0.7071 -0.7071 0.7071 0.7071 -63.7899 280.3836)" class="st6" width="4" height="4"/>
	
		<rect x="568.6" y="301.9" transform="matrix(0.7071 -0.7071 0.7071 0.7071 -47.5057 491.8652)" class="st6" width="2.8" height="2.8"/>
	<rect x="481.5" y="163.3" transform="matrix(0.7071 -0.7071 0.7071 0.7071 24.7198 390.3008)" class="st6" width="4" height="4"/>
	
		<rect x="443.5" y="249.3" transform="matrix(0.7071 -0.7071 0.7071 0.7071 -47.3444 389.0099)" class="st7" width="4.8" height="4.8"/>
	
		<rect x="982.1" y="169.1" transform="matrix(0.7071 -0.7071 0.7071 0.7071 167.0768 746.382)" class="st6" width="4.8" height="4.8"/>
	
		<rect x="571" y="355.9" transform="matrix(0.7071 -0.7071 0.7071 0.7071 -85.401 510.4349)" class="st6" width="4.8" height="4.8"/>
	<rect x="720.8" y="140.6" transform="matrix(0.7071 -0.7071 0.7071 0.7071 110.8898 552.8287)" class="st6" width="4" height="4"/>
	
		<rect x="560.3" y="447.6" transform="matrix(0.7071 -0.7071 0.7071 0.7071 -153.4117 529.7227)" class="st6" width="4.8" height="4.8"/>
	<rect x="591.2" y="161.4" transform="matrix(0.7071 -0.7071 0.7071 0.7071 58.2034 467.2761)" class="st6" width="4" height="4"/>
	
		<rect x="456.9" y="381.6" transform="matrix(0.7071 -0.7071 0.7071 0.7071 -137.0075 437.2515)" class="st6" width="4.8" height="4.8"/>
	
		<rect x="632.2" y="275.7" transform="matrix(0.7071 -0.7071 0.7071 0.7071 -10.7556 530.2106)" class="st6" width="4.8" height="4.8"/>
	
		<rect x="130.8" y="388.5" transform="matrix(0.7071 -0.7071 0.7071 0.7071 -237.3768 208.7112)" class="st7" width="4.8" height="4.8"/>
	
		<rect x="233.1" y="238.9" transform="matrix(0.7071 -0.7071 0.7071 0.7071 -101.6693 237.1996)" class="st6" width="4.8" height="4.8"/>
	
		<rect x="495.1" y="334.8" transform="matrix(0.7071 -0.7071 0.7071 0.7071 -92.7367 450.5772)" class="st6" width="4.8" height="4.8"/>
	
		<rect x="341.4" y="277.5" transform="matrix(0.7071 -0.7071 0.7071 0.7071 -97.252 325.0591)" class="st6" width="4.8" height="4.8"/>
	
		<rect x="104.7" y="433.9" transform="matrix(0.7071 -0.7071 0.7071 0.7071 -277.1375 203.5398)" class="st6" width="4.8" height="4.8"/>
	
		<rect x="436.2" y="348" transform="matrix(0.7071 -0.7071 0.7071 0.7071 -119.3332 412.7486)" class="st6" width="4.8" height="4.8"/>
	
		<rect x="188.5" y="211.5" transform="matrix(0.7071 -0.7071 0.7071 0.7071 -95.382 197.6144)" class="st6" width="4.8" height="4.8"/>
	<rect x="131.5" y="161.2" transform="matrix(0.7071 -0.7071 0.7071 0.7071 -76.3042 142.2126)" class="st6" width="4" height="4"/>
	
		<rect x="51.6" y="287.2" transform="matrix(0.7071 -0.7071 0.7071 0.7071 -188.9654 122.9969)" class="st6" width="4.8" height="4.8"/>
	
		<rect x="50.3" y="186.1" transform="matrix(0.7071 -0.7071 0.7071 0.7071 -117.8495 92.5081)" class="st6" width="4.8" height="4.8"/>
	<rect x="197.2" y="127.6" transform="matrix(0.7071 -0.7071 0.7071 0.7071 -33.2975 178.7874)" class="st6" width="4" height="4"/>
	
		<rect x="299.6" y="241" transform="matrix(0.7071 -0.7071 0.7071 0.7071 -83.6991 284.8215)" class="st7" width="4.8" height="4.8"/>
	
		<rect x="748.9" y="321.2" transform="matrix(0.7071 -0.7071 0.7071 0.7071 -8.7981 626.0526)" class="st6" width="4.8" height="4.8"/>
	
		<rect x="371.5" y="404.6" transform="matrix(0.7071 -0.7071 0.7071 0.7071 -178.3106 383.5667)" class="st6" width="4.8" height="4.8"/>
	
		<rect x="321.5" y="131.6" transform="matrix(0.7071 -0.7071 0.7071 0.7071 0.1131 268.2456)" class="st6" width="4.8" height="4.8"/>
	
		<rect x="987.8" y="152.6" transform="matrix(0.7071 -0.7071 0.7071 0.7071 180.432 745.5552)" class="st6" width="4.8" height="4.8"/>
	
		<rect x="424.8" y="233.4" transform="matrix(0.7071 -0.7071 0.7071 0.7071 -41.5738 371.1601)" class="st6" width="4.8" height="4.8"/>
	
		<rect x="295.3" y="379.1" transform="matrix(0.7071 -0.7071 0.7071 0.7071 -182.5725 322.2468)" class="st7" width="4.8" height="4.8"/>
	
		<rect x="247.2" y="288.2" transform="matrix(0.7071 -0.7071 0.7071 0.7071 -132.3667 261.5821)" class="st7" width="4.8" height="4.8"/>
	
		<rect x="525.6" y="250" transform="matrix(0.7071 -0.7071 0.7071 0.7071 -23.4238 446.263)" class="st6" width="2.8" height="2.8"/>
	
		<rect x="11.6" y="352" transform="matrix(0.7071 -0.7071 0.7071 0.7071 -246.4909 113.6694)" class="st6" width="4.8" height="4.8"/>
	
		<rect x="311.9" y="392.2" transform="matrix(0.7071 -0.7071 0.7071 0.7071 -186.9826 337.8302)" class="st6" width="4.8" height="4.8"/>
	
		<rect x="368.1" y="264.5" transform="matrix(0.7071 -0.7071 0.7071 0.7071 -80.1993 340.1303)" class="st6" width="4.8" height="4.8"/>
	
		<rect x="325.7" y="261.8" transform="matrix(0.7071 -0.7071 0.7071 0.7071 -90.3971 308.5326)" class="st6" width="3.1" height="3.1"/>
	
		<rect x="141" y="366.9" transform="matrix(0.7071 -0.7071 0.7071 0.7071 -218.7865 208.7206)" class="st6" width="3.1" height="3.1"/>
	
		<rect x="119.3" y="232.1" transform="matrix(0.7071 -0.7071 0.7071 0.7071 -129.8245 153.9134)" class="st6" width="3.1" height="3.1"/>
	
		<rect x="192.7" y="422.4" transform="matrix(0.7071 -0.7071 0.7071 0.7071 -242.8702 261.5428)" class="st6" width="3.1" height="3.1"/>
	
		<rect x="179" y="335.6" transform="matrix(0.9931 -0.1174 0.1174 0.9931 -38.3341 23.5224)" class="st6" width="3.1" height="3.1"/>
	
		<rect x="1124.8" y="161.1" transform="matrix(0.7071 -0.7071 0.7071 0.7071 214.5258 844.905)" class="st6" width="4.8" height="4.8"/>
	
		<rect x="1067.8" y="110.4" transform="matrix(0.7071 -0.7071 0.7071 0.7071 233.6675 789.7592)" class="st6" width="4.8" height="4.8"/>
	
		<rect x="416.8" y="149.2" transform="matrix(0.7071 -0.7071 0.7071 0.7071 15.5788 340.8098)" class="st6" width="4.8" height="4.8"/>
	
		<rect x="542" y="149.3" transform="matrix(0.7071 -0.7071 0.7071 0.7071 52.2108 429.3546)" class="st6" width="4.8" height="4.8"/>
	
		<rect x="148" y="321.4" transform="matrix(0.7071 -0.7071 0.7071 0.7071 -184.6323 200.5208)" class="st7" width="3.4" height="3.4"/>
	
		<rect x="42.5" y="391.9" transform="matrix(0.7071 -0.7071 0.7071 0.7071 -265.6268 147.2218)" class="st6" width="4.8" height="4.8"/>
	
		<rect x="258.9" y="348.2" transform="matrix(0.7071 -0.7071 0.7071 0.7071 -171.0853 286.7399)" class="st6" width="3.4" height="3.4"/>
	
		<rect x="367.3" y="285.3" transform="matrix(0.7071 -0.7071 0.7071 0.7071 -95.1811 345.6987)" class="st7" width="4.8" height="4.8"/>
	
		<rect x="181.6" y="328.2" transform="matrix(0.7071 -0.7071 0.7071 0.7071 -179.5785 226.2742)" class="st7" width="3.4" height="3.4"/>
	
		<rect x="611.4" y="366" transform="matrix(0.7071 -0.7071 0.7071 0.7071 -80.7368 541.9658)" class="st6" width="4.8" height="4.8"/>
	
		<rect x="217.1" y="292.4" transform="matrix(0.7071 -0.7071 0.7071 0.7071 -143.8708 240.8552)" class="st7" width="3.4" height="3.4"/>
	
		<rect x="384.8" y="339.2" transform="matrix(0.7071 -0.7071 0.7071 0.7071 -128.121 373.8664)" class="st7" width="4.8" height="4.8"/>
	<rect x="466.4" y="280.7" transform="matrix(0.7071 -0.7071 0.7071 0.7071 -62.6853 414.0115)" class="st6" width="4" height="4"/>
	
		<rect x="408.1" y="179.7" transform="matrix(0.7071 -0.7071 0.7071 0.7071 -8.5608 343.5968)" class="st6" width="4.8" height="4.8"/>
	
		<rect x="439.7" y="440.5" transform="matrix(0.7071 -0.7071 0.7071 0.7071 -183.6957 442.3208)" class="st6" width="4.8" height="4.8"/>
	<rect x="259.1" y="175.7" transform="matrix(0.7071 -0.7071 0.7071 0.7071 -49.1814 236.6793)" class="st6" width="4" height="4"/>
	
		<rect x="207.7" y="269.5" transform="matrix(0.7071 -0.7071 0.7071 0.7071 -130.4311 227.5043)" class="st6" width="3.4" height="3.4"/>
	
		<rect x="309.7" y="411.9" transform="matrix(0.7071 -0.7071 0.7071 0.7071 -201.2747 341.3508)" class="st6" width="3.4" height="3.4"/>
	
		<rect x="281" y="293.8" transform="matrix(0.7071 -0.7071 0.7071 0.7071 -126.1485 286.4377)" class="st6" width="3.4" height="3.4"/>
	
		<rect x="167" y="213.4" transform="matrix(0.7071 -0.7071 0.7071 0.7071 -102.9904 182.9799)" class="st6" width="4.8" height="4.8"/>
	
		<rect x="732.5" y="395.5" transform="matrix(0.7071 -0.7071 0.7071 0.7071 -66.1544 636.1729)" class="st6" width="4.8" height="4.8"/>
	<rect x="727" y="227.5" transform="matrix(0.7071 -0.7071 0.7071 0.7071 51.063 583.0784)" class="st6" width="4.8" height="4.8"/>
	
		<rect x="136.2" y="294.8" transform="matrix(0.7071 -0.7071 0.7071 0.7071 -169.2314 184.3729)" class="st6" width="3.4" height="3.4"/>
	
		<rect x="573.6" y="201.2" transform="matrix(0.7071 -0.7071 0.7071 0.7071 24.7389 466.9057)" class="st6" width="4.8" height="4.8"/>
	
		<rect x="552.1" y="301.4" transform="matrix(0.7071 -0.7071 0.7071 0.7071 -52.0052 480.0396)" class="st6" width="2.8" height="2.8"/>
	
		<rect x="80.9" y="333.4" transform="matrix(0.7071 -0.7071 0.7071 0.7071 -212.6608 156.4251)" class="st6" width="3.1" height="3.1"/>
	
		<rect x="1262.2" y="116.3" transform="matrix(0.7071 -0.7071 0.7071 0.7071 286.4649 928.9917)" class="st6" width="4.8" height="4.8"/>
	
		<rect x="908.6" y="328.9" transform="matrix(0.3721 -0.9282 0.9282 0.3721 264.8115 1052.275)" class="st6" width="3.1" height="3.1"/>
	
		<rect x="981.5" y="444.3" transform="matrix(0.3721 -0.9282 0.9282 0.3721 203.4628 1192.395)" class="st6" width="3.1" height="3.1"/>
	
		<rect x="839.2" y="298.2" transform="matrix(0.3721 -0.9282 0.9282 0.3721 249.7228 968.5597)" class="st6" width="3.1" height="3.1"/>
	
		<rect x="886" y="372.4" transform="matrix(0.8669 -0.4985 0.4985 0.8669 -68.2864 492.2046)" class="st6" width="3.1" height="3.1"/>
	
		<rect x="1171.5" y="338.3" transform="matrix(0.3721 -0.9282 0.9282 0.3721 421.1026 1302.2482)" class="st6" width="3.1" height="3.1"/>
	
		<rect x="1261.3" y="318.1" transform="matrix(0.3721 -0.9282 0.9282 0.3721 496.2262 1372.8928)" class="st6" width="3.1" height="3.1"/>
	
		<rect x="1219.3" y="351.7" transform="matrix(0.3721 -0.9282 0.9282 0.3721 438.704 1355.2172)" class="st6" width="3.4" height="3.4"/>
	
		<rect x="807.1" y="392.2" transform="matrix(0.3721 -0.9282 0.9282 0.3721 142.2174 998.0931)" class="st6" width="3.4" height="3.4"/>
	
		<rect x="1090.2" y="402.5" transform="matrix(0.3721 -0.9282 0.9282 0.3721 310.4622 1267.2595)" class="st6" width="3.4" height="3.4"/>
	
		<rect x="1152.2" y="401.2" transform="matrix(0.3721 -0.9282 0.9282 0.3721 350.5518 1324.0577)" class="st6" width="3.4" height="3.4"/>
	
		<rect x="885" y="444.3" transform="matrix(0.3721 -0.9282 0.9282 0.3721 142.7604 1103.1154)" class="st6" width="3.4" height="3.4"/>
	
		<rect x="808.2" y="450.8" transform="matrix(0.3721 -0.9282 0.9282 0.3721 88.509 1035.921)" class="st6" width="3.4" height="3.4"/>
	
		<rect x="940.9" y="393.1" transform="matrix(0.3721 -0.9282 0.9282 0.3721 225.3929 1122.8395)" class="st6" width="3.4" height="3.4"/>
	
		<rect x="976.9" y="336" transform="matrix(0.3721 -0.9282 0.9282 0.3721 301.1129 1120.1233)" class="st6" width="3.1" height="3.1"/>
	
		<rect x="1218" y="336.8" transform="matrix(0.3721 -0.9282 0.9282 0.3721 451.7383 1344.3966)" class="st6" width="3.1" height="3.1"/>
	
		<rect x="1252.1" y="269.2" transform="matrix(0.3721 -0.9282 0.9282 0.3721 535.912 1333.6234)" class="st6" width="3.1" height="3.1"/>
	
		<rect x="1148.7" y="219.3" transform="matrix(0.1285 -0.9917 0.9917 0.1285 783.2729 1334.7762)" class="st6" width="4.8" height="4.8"/>
	
		<rect x="824.5" y="186.2" transform="matrix(0.1285 -0.9917 0.9917 0.1285 533.5485 984.4285)" class="st6" width="4.8" height="4.8"/>
	
		<rect x="787.6" y="256.8" transform="matrix(0.1285 -0.9917 0.9917 0.1285 431.3754 1009.3642)" class="st6" width="4.8" height="4.8"/>
	
		<rect x="678.3" y="292.3" transform="matrix(0.1285 -0.9917 0.9917 0.1285 300.9171 931.9086)" class="st6" width="4.8" height="4.8"/>
	
		<rect x="971.9" y="261.2" transform="matrix(0.1285 -0.9917 0.9917 0.1285 587.6275 1195.9681)" class="st6" width="4.8" height="4.8"/>
	
		<rect x="839.6" y="251.3" transform="matrix(0.1285 -0.9917 0.9917 0.1285 482.1497 1056.1384)" class="st6" width="4.8" height="4.8"/>
	
		<rect x="1163.6" y="249" transform="matrix(0.1285 -0.9917 0.9917 0.1285 766.7916 1375.4463)" class="st6" width="4.8" height="4.8"/>
	
		<rect x="631.5" y="183.6" transform="matrix(0.1285 -0.9917 0.9917 0.1285 367.9406 790.7577)" class="st6" width="4.8" height="4.8"/>
	
		<rect x="1046.7" y="256.6" transform="matrix(0.1285 -0.9917 0.9917 0.1285 657.389 1266.1295)" class="st6" width="4.8" height="4.8"/>
	
		<rect x="855.5" y="236.6" transform="matrix(0.1285 -0.9917 0.9917 0.1285 510.5839 1059.0966)" class="st6" width="4.8" height="4.8"/>
	
		<rect x="1163.8" y="292.9" transform="matrix(0.1285 -0.9917 0.9917 0.1285 723.4424 1413.8931)" class="st6" width="4.8" height="4.8"/>
	
		<rect x="1083.9" y="319.4" transform="matrix(0.7071 -0.7071 0.7071 0.7071 90.6575 862.3682)" class="st6" width="4.8" height="4.8"/>
	
		<rect x="1028.4" y="346.8" transform="matrix(0.7071 -0.7071 0.7071 0.7071 55.012 831.1763)" class="st6" width="4.8" height="4.8"/>
	
		<rect x="1181.8" y="430.5" transform="matrix(0.7071 -0.7071 0.7071 0.7071 40.7412 964.119)" class="st6" width="4.8" height="4.8"/>
	
		<rect x="1215.1" y="197.9" transform="matrix(0.7071 -0.7071 0.7071 0.7071 214.9673 919.583)" class="st6" width="4.8" height="4.8"/>
	
		<rect x="1199.7" y="272.2" transform="matrix(0.7071 -0.7071 0.7071 0.7071 157.8892 930.4327)" class="st6" width="4.8" height="4.8"/>
	
		<rect x="1036.4" y="139.6" transform="matrix(0.7071 -0.7071 0.7071 0.7071 204.1903 775.2797)" class="st6" width="3.1" height="3.1"/>
	
		<rect x="1053.3" y="202.2" transform="matrix(0.7071 -0.7071 0.7071 0.7071 164.859 805.7224)" class="st6" width="3.4" height="3.4"/>
	
		<rect x="998.1" y="241" transform="matrix(0.7071 -0.7071 0.7071 0.7071 121.254 777.8912)" class="st6" width="3.1" height="3.1"/>
	
		<rect x="1048.3" y="20.4" transform="matrix(0.7071 -0.7071 0.7071 0.7071 291.6072 749.6817)" class="st6" width="4.8" height="4.8"/>
	
		<rect x="1735.3" y="13.1" transform="matrix(0.7071 -0.7071 0.7071 0.7071 497.9689 1233.2993)" class="st6" width="4.8" height="4.8"/>
	
		<rect x="1310.5" y="17.1" transform="matrix(0.7071 -0.7071 0.7071 0.7071 370.7698 934.0617)" class="st6" width="4.8" height="4.8"/>
	
		<rect x="1477.9" y="0.8" transform="matrix(0.9931 -0.1174 0.1174 0.9931 9.9532 173.6998)" class="st6" width="3.1" height="3.1"/>
	
		<rect x="1558" y="13.3" transform="matrix(0.7071 -0.7071 0.7071 0.7071 446.2169 1107.2325)" class="st6" width="3.4" height="3.4"/>
	
		<rect x="1380" y="-1.4" transform="matrix(0.7071 -0.7071 0.7071 0.7071 404.5122 976.9468)" class="st6" width="3.1" height="3.1"/>
	
		<rect x="751.6" y="21.2" transform="matrix(0.7071 -0.7071 0.7071 0.7071 204.149 540.0952)" class="st6" width="4.8" height="4.8"/>
	<rect x="675.7" y="0" transform="matrix(0.7071 -0.7071 0.7071 0.7071 196.8839 480.2082)" class="st6" width="4.8" height="4.8"/>
	
		<rect x="616.8" y="13.3" transform="matrix(0.7071 -0.7071 0.7071 0.7071 170.2876 442.4379)" class="st6" width="4.8" height="4.8"/>
	
		<rect x="860.2" y="16.1" transform="matrix(0.7071 -0.7071 0.7071 0.7071 239.8957 614.5266)" class="st6" width="3.1" height="3.1"/>
	
		<rect x="1316.6" y="342.2" transform="matrix(0.7071 -0.7071 0.7071 0.7071 142.6255 1033.6167)" class="st6" width="4.8" height="4.8"/>
	
		<rect x="1538.2" y="255.4" transform="matrix(0.7071 -0.7071 0.7071 0.7071 268.9058 1164.8744)" class="st6" width="4.8" height="4.8"/>
	<rect x="1682" y="198.4" transform="matrix(0.7071 -0.7071 0.7071 0.7071 351.4941 1249.4629)" class="st6" width="4" height="4"/>
	
		<rect x="1300.6" y="128.5" transform="matrix(0.7071 -0.7071 0.7071 0.7071 289.3994 959.0046)" class="st6" width="3.4" height="3.4"/>
	
		<rect x="1610.5" y="222" transform="matrix(0.7071 -0.7071 0.7071 0.7071 313.744 1206.2494)" class="st6" width="4.8" height="4.8"/>
	
		<rect x="1718.8" y="260.6" transform="matrix(0.7071 -0.7071 0.7071 0.7071 318.1903 1294.097)" class="st6" width="4.8" height="4.8"/>
	
		<rect x="1482.2" y="417" transform="matrix(0.7071 -0.7071 0.7071 0.7071 138.2757 1172.5898)" class="st6" width="4.8" height="4.8"/>
	
		<rect x="1331.9" y="113.9" transform="matrix(0.7071 -0.7071 0.7071 0.7071 308.5448 977.5399)" class="st6" width="4.8" height="4.8"/>
	
		<rect x="1565.9" y="194.6" transform="matrix(0.7071 -0.7071 0.7071 0.7071 320.0309 1166.6648)" class="st6" width="4.8" height="4.8"/>
	<rect x="1509" y="144.4" transform="matrix(0.7071 -0.7071 0.7071 0.7071 339.0504 1111.3212)" class="st6" width="4" height="4"/>
	
		<rect x="1349.4" y="147.4" transform="matrix(0.7071 -0.7071 0.7071 0.7071 289.9686 999.7257)" class="st6" width="4.8" height="4.8"/>
	
		<rect x="1429" y="270.3" transform="matrix(0.7071 -0.7071 0.7071 0.7071 226.4065 1092.0642)" class="st6" width="4.8" height="4.8"/>
	
		<rect x="1427.9" y="169.1" transform="matrix(0.7071 -0.7071 0.7071 0.7071 297.6223 1061.6167)" class="st6" width="4.8" height="4.8"/>
	
		<rect x="1574.7" y="110.8" transform="matrix(0.7071 -0.7071 0.7071 0.7071 382.0567 1147.896)" class="st6" width="4" height="4"/>
	
		<rect x="1698.8" y="114.7" transform="matrix(0.7071 -0.7071 0.7071 0.7071 415.4971 1237.2252)" class="st6" width="4.8" height="4.8"/>
	
		<rect x="1388.8" y="335.1" transform="matrix(0.7071 -0.7071 0.7071 0.7071 168.8223 1082.6194)" class="st6" width="4.8" height="4.8"/>
	
		<rect x="1322.8" y="309.6" transform="matrix(0.7071 -0.7071 0.7071 0.7071 167.5012 1028.4585)" class="st6" width="4.8" height="4.8"/>
	
		<rect x="1689.5" y="375.3" transform="matrix(0.7071 -0.7071 0.7071 0.7071 228.4891 1306.9391)" class="st6" width="4.8" height="4.8"/>
	
		<rect x="1703.2" y="245" transform="matrix(0.7071 -0.7071 0.7071 0.7071 324.9573 1277.6415)" class="st6" width="3.1" height="3.1"/>
	
		<rect x="1518.5" y="350.1" transform="matrix(0.7071 -0.7071 0.7071 0.7071 196.5681 1177.8293)" class="st6" width="3.1" height="3.1"/>
	
		<rect x="1496.8" y="215.3" transform="matrix(0.7071 -0.7071 0.7071 0.7071 285.5302 1123.0219)" class="st6" width="3.1" height="3.1"/>
	
		<rect x="1570.2" y="405.6" transform="matrix(0.7071 -0.7071 0.7071 0.7071 172.4841 1230.6519)" class="st6" width="3.1" height="3.1"/>
	
		<rect x="1556.4" y="318.9" transform="matrix(0.9931 -0.1174 0.1174 0.9931 -26.8414 185.1198)" class="st6" width="3.1" height="3.1"/>
	
		<rect x="1420" y="374.9" transform="matrix(0.7071 -0.7071 0.7071 0.7071 149.7862 1116.2723)" class="st6" width="4.8" height="4.8"/>
	
		<rect x="1636.4" y="331.4" transform="matrix(0.7071 -0.7071 0.7071 0.7071 244.2692 1255.849)" class="st6" width="3.4" height="3.4"/>
	
		<rect x="1380.2" y="210.6" transform="matrix(0.7071 -0.7071 0.7071 0.7071 254.6294 1039.2927)" class="st6" width="3.4" height="3.4"/>
	
		<rect x="1322.7" y="187.3" transform="matrix(0.7071 -0.7071 0.7071 0.7071 254.2571 991.8835)" class="st6" width="3.4" height="3.4"/>
	
		<rect x="1636.6" y="158.8" transform="matrix(0.7071 -0.7071 0.7071 0.7071 366.2318 1205.7292)" class="st6" width="4" height="4"/>
	
		<rect x="1585.1" y="252.6" transform="matrix(0.7071 -0.7071 0.7071 0.7071 284.9115 1196.5249)" class="st6" width="3.4" height="3.4"/>
	
		<rect x="1687.2" y="395.1" transform="matrix(0.7071 -0.7071 0.7071 0.7071 214.0796 1310.4596)" class="st6" width="3.4" height="3.4"/>
	
		<rect x="1658.5" y="277" transform="matrix(0.7071 -0.7071 0.7071 0.7071 289.2062 1255.5463)" class="st6" width="3.4" height="3.4"/>
	
		<rect x="1544.4" y="196.6" transform="matrix(0.7071 -0.7071 0.7071 0.7071 312.3518 1152.0597)" class="st6" width="4.8" height="4.8"/>
	
		<rect x="1513.7" y="277.8" transform="matrix(0.7071 -0.7071 0.7071 0.7071 246.1816 1153.4229)" class="st6" width="3.4" height="3.4"/>
	
		<rect x="1349.4" y="274.8" transform="matrix(0.7071 -0.7071 0.7071 0.7071 199.8834 1037.0388)" class="st6" width="4.8" height="4.8"/>
	
		<rect x="1458.5" y="316.6" transform="matrix(0.7071 -0.7071 0.7071 0.7071 202.6643 1125.6046)" class="st6" width="3.1" height="3.1"/>
	
		<rect x="1767.8" y="251.1" transform="matrix(0.7071 -0.7071 0.7071 0.7071 339.2612 1325.988)" class="st6" width="4.8" height="4.8"/>
	
		<rect x="1742.5" y="281.6" transform="matrix(0.7071 -0.7071 0.7071 0.7071 310.4995 1316.293)" class="st6" width="3.4" height="3.4"/>
	<rect x="18.3" y="-0.6" transform="matrix(0.7071 -0.7071 0.7071 0.7071 4.7912 15.1872)" class="st6" width="4.8" height="4.8"/>
	<rect x="145.7" y="48" transform="matrix(0.9931 -0.1174 0.1174 0.9931 -4.7951 17.6334)" class="st6" width="3.1" height="3.1"/>
	<rect x="247.7" y="6" transform="matrix(0.7071 -0.7071 0.7071 0.7071 67.6082 178.628)" class="st6" width="3.4" height="3.4"/>
	<rect x="103" y="7" transform="matrix(0.7071 -0.7071 0.7071 0.7071 24.5253 76.5632)" class="st6" width="3.4" height="3.4"/>
	
		<rect x="47.8" y="45.7" transform="matrix(0.7071 -0.7071 0.7071 0.7071 -18.9923 48.7447)" class="st6" width="3.1" height="3.1"/>
	
		<rect x="465.4" y="18.7" transform="matrix(0.7071 -0.7071 0.7071 0.7071 122.0928 336.9588)" class="st6" width="4.8" height="4.8"/>
	<rect x="492" y="5.6" transform="matrix(0.7071 -0.7071 0.7071 0.7071 139.1747 351.9592)" class="st6" width="4.8" height="4.8"/>
	
		<rect x="449.7" y="3.1" transform="matrix(0.7071 -0.7071 0.7071 0.7071 128.8769 320.4616)" class="st6" width="3.1" height="3.1"/>
	
		<rect x="331.7" y="10.8" transform="matrix(0.7071 -0.7071 0.7071 0.7071 88.8138 239.4451)" class="st6" width="3.4" height="3.4"/>
	<rect x="404.9" y="35.1" transform="matrix(0.7071 -0.7071 0.7071 0.7071 93.067 298.308)" class="st6" width="3.4" height="3.4"/>
	
		<rect x="568.5" y="50.1" transform="matrix(0.7071 -0.7071 0.7071 0.7071 130.5286 418.0874)" class="st6" width="2.8" height="2.8"/>
	
		<rect x="571.1" y="104.3" transform="matrix(0.7071 -0.7071 0.7071 0.7071 92.5334 436.7571)" class="st6" width="4.8" height="4.8"/>
	
		<rect x="495.1" y="83.1" transform="matrix(0.7071 -0.7071 0.7071 0.7071 85.239 376.7994)" class="st6" width="4.8" height="4.8"/>
	
		<rect x="436.3" y="96.3" transform="matrix(0.7071 -0.7071 0.7071 0.7071 58.6718 339.0999)" class="st6" width="4.8" height="4.8"/>
	
		<rect x="748.9" y="69.5" transform="matrix(0.7071 -0.7071 0.7071 0.7071 169.2363 552.3334)" class="st6" width="4.8" height="4.8"/>
	
		<rect x="11.5" y="100.4" transform="matrix(0.7071 -0.7071 0.7071 0.7071 -68.586 39.9207)" class="st6" width="4.8" height="4.8"/>
	
		<rect x="140.9" y="115.2" transform="matrix(0.7071 -0.7071 0.7071 0.7071 -40.8106 134.9428)" class="st6" width="3.1" height="3.1"/>
	<rect x="178.9" y="84" transform="matrix(0.9931 -0.1174 0.1174 0.9931 -8.7957 21.7738)" class="st6" width="3.1" height="3.1"/>
	
		<rect x="258.8" y="96.4" transform="matrix(0.7071 -0.7071 0.7071 0.7071 6.9491 212.9622)" class="st6" width="3.4" height="3.4"/>
	
		<rect x="611.4" y="114.4" transform="matrix(0.7071 -0.7071 0.7071 0.7071 97.1679 468.2173)" class="st6" width="4.8" height="4.8"/>
	
		<rect x="552.1" y="49.8" transform="matrix(0.7071 -0.7071 0.7071 0.7071 125.929 406.3619)" class="st6" width="2.8" height="2.8"/>
	<rect x="81" y="81.8" transform="matrix(0.7071 -0.7071 0.7071 0.7071 -34.7266 82.8059)" class="st6" width="3.1" height="3.1"/>
	
		<rect x="908.6" y="77.1" transform="matrix(0.3721 -0.9282 0.9282 0.3721 498.4503 894.2305)" class="st6" width="3.1" height="3.1"/>
	
		<rect x="885.9" y="120.8" transform="matrix(0.8669 -0.4985 0.4985 0.8669 57.1444 458.6714)" class="st6" width="3.1" height="3.1"/>
	
		<rect x="1171.6" y="86.7" transform="matrix(0.3721 -0.9282 0.9282 0.3721 654.7651 1144.313)" class="st6" width="3.1" height="3.1"/>
	
		<rect x="1261.4" y="66.5" transform="matrix(0.3721 -0.9282 0.9282 0.3721 729.8887 1214.958)" class="st6" width="3.1" height="3.1"/>
	
		<rect x="1219.2" y="100" transform="matrix(0.3721 -0.9282 0.9282 0.3721 672.1947 1197.1267)" class="st6" width="3.4" height="3.4"/>
	
		<rect x="976.8" y="84.3" transform="matrix(0.3721 -0.9282 0.9282 0.3721 534.6033 962.0328)" class="st6" width="3.1" height="3.1"/>
	
		<rect x="1217.9" y="85" transform="matrix(0.3721 -0.9282 0.9282 0.3721 685.3383 1186.2825)" class="st6" width="3.1" height="3.1"/>
	
		<rect x="1083.9" y="67.7" transform="matrix(0.7071 -0.7071 0.7071 0.7071 268.621 788.6784)" class="st6" width="4.8" height="4.8"/>
	
		<rect x="1028.3" y="95.1" transform="matrix(0.7071 -0.7071 0.7071 0.7071 232.9172 757.3692)" class="st6" width="4.8" height="4.8"/>
	
		<rect x="1316.6" y="90.6" transform="matrix(0.7071 -0.7071 0.7071 0.7071 320.5599 959.9388)" class="st6" width="4.8" height="4.8"/>
	
		<rect x="1388.9" y="83.4" transform="matrix(0.7071 -0.7071 0.7071 0.7071 346.8271 1008.9709)" class="st6" width="4.8" height="4.8"/>
	
		<rect x="1322.8" y="58" transform="matrix(0.7071 -0.7071 0.7071 0.7071 345.4355 954.7807)" class="st6" width="4.8" height="4.8"/>
	
		<rect x="1689.4" y="123.6" transform="matrix(0.7071 -0.7071 0.7071 0.7071 406.3941 1233.1909)" class="st6" width="4.8" height="4.8"/>
	
		<rect x="1518.5" y="98.3" transform="matrix(0.7071 -0.7071 0.7071 0.7071 374.6023 1104.1102)" class="st6" width="3.1" height="3.1"/>
	
		<rect x="1556.4" y="67.1" transform="matrix(0.9931 -0.1174 0.1174 0.9931 2.7103 183.3703)" class="st6" width="3.1" height="3.1"/>
	
		<rect x="1419.9" y="123.3" transform="matrix(0.7071 -0.7071 0.7071 0.7071 327.6912 1042.5238)" class="st6" width="4.8" height="4.8"/>
	
		<rect x="1636.4" y="79.6" transform="matrix(0.7071 -0.7071 0.7071 0.7071 422.3034 1182.1299)" class="st6" width="3.4" height="3.4"/>
	
		<rect x="1458.5" y="64.9" transform="matrix(0.7071 -0.7071 0.7071 0.7071 380.6281 1051.9144)" class="st6" width="3.1" height="3.1"/>
</g>
<g class="st8">
	
		<linearGradient id="river_2_" gradientUnits="userSpaceOnUse" x1="864.4032" y1="366.067" x2="1007.7682" y2="871.902" gradientTransform="matrix(1 0 0 1 0 111.9999)">
		<stop  offset="7.882074e-02" style="stop-color:#C5817E"/>
		<stop  offset="0.3645" style="stop-color:#57606D"/>
		<stop  offset="0.6989" style="stop-color:#33434C"/>
		<stop  offset="1" style="stop-color:#2D3A41"/>
	</linearGradient>
	<polygon id="river_1_" class="st9" points="1786.2,829.5 394.9,829.5 93.4,829.8 260.5,740.1 394.9,658.3 1786.2,658.3 	"/>
	<path id="land-right3_1_" class="st10" d="M1508.8,640.1h-40.2l-59.5-1.1h-10.2l-22.3-1.1l-34.4-3.4l-24.4,4.5l-20.4-3.5l-21.3,4.1
		l-32.5-12l-38.4,7l-51.5,8.3l-54.4-2.3l-28.5,3l-12.9,7l-13.1-6.2l-56.5,3.9l-51.7-3.9l-48.6,8.9l-61.4,2.2l-68.7,3.8l-18.6,1
		l14.9,4.2l8.2,1l23.9,2.5l41.9,3.8l87.8,10.5l93.8-1.6l372.3-7.6c0,0,136.4,5,136.4-23.7L1508.8,640.1z"/>
	
		<linearGradient id="SVGID_4_" gradientUnits="userSpaceOnUse" x1="1498.1998" y1="428.5535" x2="1233.4729" y2="78.8874" gradientTransform="matrix(1 0 0 -1 0 807.0789)">
		<stop  offset="0" style="stop-color:#F4B49C"/>
		<stop  offset="0.3648" style="stop-color:#5A576C"/>
		<stop  offset="0.9951" style="stop-color:#3D4E59"/>
	</linearGradient>
	<polygon class="st11" points="1782.1,613.8 1759.5,617.9 1749.9,613.9 1709.2,612.9 1654.5,621.2 1596.7,618.9 1566.4,621.9 
		1506,615.8 1441.9,628.1 1375.9,632.3 1316.2,630.2 1275.2,642.2 1217.3,644.3 1191.2,650.6 1143.7,655 1084.1,658.1 1048.8,664.4 
		1022.1,658 996,664.4 974,662 947.9,664.4 940.8,671.9 889.5,675.8 869.6,681.4 846.9,687.3 840.8,689.1 759.3,696.9 796.2,698.8 
		1019.7,697.2 1052.7,702.5 1225,702.5 1571.1,698.9 1571.1,672.7 1782.6,660.4 	"/>
	
		<linearGradient id="SVGID_5_" gradientUnits="userSpaceOnUse" x1="1341.7329" y1="352.2683" x2="1271.6433" y2="-310.883" gradientTransform="matrix(1 0 0 -1 0 807.0789)">
		<stop  offset="0" style="stop-color:#F6D59B"/>
		<stop  offset="0.1469" style="stop-color:#BEA39B"/>
		<stop  offset="0.2595" style="stop-color:#676279"/>
		<stop  offset="0.4019" style="stop-color:#3A4C57"/>
		<stop  offset="1" style="stop-color:#3A4850"/>
	</linearGradient>
	<polygon class="st12" points="1755.5,618.7 1690.6,609.9 1656.8,618.7 1628.4,629.6 1609.5,629.7 1574.3,625.5 1539.2,640.2 
		1518.4,634.9 1494.8,644.3 1441,653.1 1422.1,656.3 1410.6,654 1410.6,653 1401.7,652.2 1399.1,651.7 1398.5,651.9 1377.6,649.9 
		1338.6,642.4 1321.2,646.9 1292.8,656.7 1275.2,669.4 1250.5,660.8 1231.6,660.9 1215.4,660.9 1196.3,656.7 1161.3,671.4 
		1140.5,666.1 1116.8,675.5 1091.2,679.8 1063.1,684.3 1044.2,687.5 1021.2,682.9 1003.8,688.5 976,706.1 947.9,715.7 932.8,720.3 
		914.5,720.3 889.5,726.4 872,726.9 849.1,737.4 837.1,737.4 825.7,741.5 909.5,742.3 896.3,746.7 882.9,746.7 871.7,750.2 
		854.1,752 871.7,754.1 893.1,758.1 909.5,758.1 925.3,758.1 937.1,762.9 962.8,768.9 977.8,768.9 990.7,768.9 1002.5,769.2 
		1006.5,769.8 1030.4,773 1046.2,775.5 1046.2,775 1079.5,779.4 1158.4,812.3 1193.8,808.5 1253.1,823.7 1315.1,827.6 1432.9,829.4 
		1788.5,823.4 1788.5,621.8 	"/>
	<polygon class="st13" points="1383.3,615.8 836,615.8 830.6,620 836,624.2 983.1,624.2 981.3,627.9 981.3,627.9 988.8,633.8 
		1371.4,633.8 1388.7,620 	"/>
	<path class="st13" d="M907.9,604.8l6.6-5.1h749c3.6,0,6.6,2.3,6.6,5.1l0,0c0,2.8-3,5.1-6.6,5.1h-749L907.9,604.8z"/>
	<polygon class="st13" points="78.1,631.3 445.5,631.3 451.8,626.7 451.8,626.7 445.5,622.2 78.1,622.2 71.7,626.7 71.7,626.7 	"/>
	<polygon class="st14" points="790.4,576.4 1089.4,576.4 1097.7,570.5 1097.7,570.5 1089.4,564.6 790.4,564.6 782,570.5 782,570.5 	
		"/>
	<path class="st15" d="M1179.8,569.4h539.3c3.2,0,5.9-1.7,5.9-3.7l0,0c0-2-2.7-3.7-5.9-3.7h-539.3l-5.9,3.7l0,0L1179.8,569.4z"/>
	<polygon class="st16" points="1503,585.1 1031.1,585.1 1027.3,582.8 1027.3,582.8 1031.1,580.4 1503,580.4 1506.8,582.8 
		1506.8,582.8 	"/>
	
		<linearGradient id="SVGID_6_" gradientUnits="userSpaceOnUse" x1="13.2343" y1="1176.1292" x2="501.5411" y2="1194.3755" gradientTransform="matrix(1 0 0 1 0 -522)">
		<stop  offset="0" style="stop-color:#404F58"/>
		<stop  offset="0.3424" style="stop-color:#41535D"/>
		<stop  offset="0.8823" style="stop-color:#445E6D"/>
		<stop  offset="1" style="stop-color:#456171"/>
	</linearGradient>
	<polygon class="st17" points="508.6,673.2 508.3,672.9 502.7,671.8 495.5,667 493.8,666.2 502.2,665.5 505.6,663.2 512.9,663.9 
		533.4,658.2 519.6,658.3 513.3,658.3 498.6,656.6 494.1,657.4 489.4,656.6 474.9,657.9 456.3,653.4 437.3,654 430.4,656.2 
		416.9,654.4 411.6,651.7 398.3,653.5 386.9,653.7 376.1,651.1 358.1,651.1 341.3,651.1 332.1,645.8 308.7,645.8 278.4,645.8 
		267.9,638.7 231.1,646.4 202.6,639.2 123.8,641.9 79.4,626.9 47.9,629.4 2.3,624.4 0.6,623.4 0.6,675 122.4,675 174.9,680.7 
		208.4,691.6 306.5,685.2 347,693.3 388.3,691.6 424.5,694 412.3,687.7 426.1,681.4 431.6,683.3 436.8,680.4 456.5,679.2 
		460.1,678.4 487.6,677.9 505,677.9 506.8,677.9 508.6,677.5 516.8,676.8 514,675.2 	"/>
	
		<linearGradient id="SVGID_7_" gradientUnits="userSpaceOnUse" x1="368.1999" y1="961.4645" x2="280.6844" y2="1177.8224" gradientTransform="matrix(1 0 0 1 0 -522)">
		<stop  offset="0.1139" style="stop-color:#334D5A"/>
		<stop  offset="1" style="stop-color:#384A56"/>
	</linearGradient>
	<polygon class="st18" points="538.4,699.9 514.7,695.2 482.2,692.7 460.5,685.7 443.4,683.8 404.6,687.9 347.2,673.4 292.2,680.4 
		243.7,671.7 201.6,674 167.4,669.6 156.2,661.8 120.1,658.2 91,658.2 85.7,662.2 65.9,655.8 48.8,653.9 10,658 0.6,653 0.6,723.1 
		12.2,715.3 25.6,717.3 30.8,745.8 65.8,745.5 130.6,743.7 209,745.2 314.9,744.7 351.9,745.2 382.2,726.1 412.2,727.7 444.6,717.7 
		458.8,709.4 485.8,705.3 524.1,706 543.2,702 	"/>
	
		<linearGradient id="SVGID_8_" gradientUnits="userSpaceOnUse" x1="831.706" y1="1243.9855" x2="172.5415" y2="1279.9901" gradientTransform="matrix(1 0 0 1 0 -522)">
		<stop  offset="4.998519e-04" style="stop-color:#303D44"/>
		<stop  offset="0.5639" style="stop-color:#34424A"/>
		<stop  offset="0.9715" style="stop-color:#223239"/>
	</linearGradient>
	<polygon class="st19" points="414.1,761.9 382.4,747.4 354.8,749.3 326.3,733 277.8,721.7 233.5,711.1 181.7,711.7 107.6,699.4 
		81,701.9 81,701.8 0.6,693.9 0.6,829.8 72.1,829.8 78.7,829.8 104.4,829.8 120.8,829.8 137.9,829.8 173.7,829.8 207.2,829.5 
		287.3,812.7 323.9,809.6 357,801.6 382,788.4 403.8,785.7 414.9,787.1 441.7,785.1 465.6,780.5 	"/>
	<polygon class="st20" points="510.6,573.8 504.9,569.8 0.6,569.8 0.6,585.6 333,585.6 341.4,579.7 341,577.7 504.9,577.7 	"/>
	<polygon class="st20" points="426.5,596.5 0.6,596.5 0.6,605 426.5,605 432.6,600.7 	"/>
</g>
</svg>
