<?xml version="1.0" encoding="utf-8"?>
<!-- Generator: Adobe Illustrator 22.0.1, SVG Export Plug-In . SVG Version: 6.00 Build 0)  -->
<svg version="1.1" id="Layer_1" xmlns="http://www.w3.org/2000/svg" xmlns:xlink="http://www.w3.org/1999/xlink" x="0px" y="0px"
	 viewBox="0 0 211.6 216" style="enable-background:new 0 0 211.6 216;" xml:space="preserve">
<style type="text/css">
	.st0{fill:#144BA0;}
	.st1{fill-rule:evenodd;clip-rule:evenodd;fill:#144BA0;}
	.st2{fill-rule:evenodd;clip-rule:evenodd;fill:#5DC1E6;}
	.st3{fill-rule:evenodd;clip-rule:evenodd;fill:#1585BF;}
	.st4{fill-rule:evenodd;clip-rule:evenodd;fill:#FFFFFF;}
	.st5{fill-rule:evenodd;clip-rule:evenodd;fill:#CBDBE4;}
	.st6{stroke:#BE1E2D;stroke-width:3.7868;stroke-miterlimit:10;}
	.st7{fill:url(#SVGID_1_);}
	.st8{filter:url(#Adobe_OpacityMaskFilter);}
	.st9{mask:url(#SVGID_2_);}
	.st10{filter:url(#Adobe_OpacityMaskFilter_1_);}
	.st11{fill:#B31F24;}
	.st12{fill:url(#SVGID_3_);}
	.st13{filter:url(#Adobe_OpacityMaskFilter_2_);}
	.st14{mask:url(#SVGID_4_);}
	.st15{fill:#D04A27;}
	.st16{fill:url(#SVGID_5_);}
	.st17{filter:url(#Adobe_OpacityMaskFilter_3_);}
	.st18{mask:url(#SVGID_6_);}
	.st19{fill:#EFAB1F;}
	.st20{fill:url(#SVGID_7_);}
	.st21{filter:url(#Adobe_OpacityMaskFilter_4_);}
	.st22{mask:url(#SVGID_8_);}
	.st23{fill:#E5AB23;}
	.st24{fill:#FFFFFF;}
	.st25{fill:none;}
</style>
<g>
	<g>
		<path class="st1" d="M130.1,43.7c-1-0.7-2-1.6-2.7-2.6c-1.2-1.5-2.6-3.1-4-4.4l-1,1c-0.4,0.5-1.3,1.6-1.3,2.3
			c0,0.3,0.6,0.6,0.9,0.7C124.7,41.8,127.4,42.7,130.1,43.7 M68,107.6c5.7,43,26,52,39.2,54.5c30.6,5.6,44.5,27.8,76.8-7.5
			c0.4-0.4,11.6-8.5,17.6-16.8c-2.2,3.1,0.7-3.7,0,0c-2.4,12.2-5.5,21-13.4,31.2c-18.7,24.2-48.8,39.3-79.4,39.3
			c-54.4,0-99.9-44.6-99.9-99c0-29.5,13.7-59.6,37.1-77.7c15.9-12.3,37.7-18.8,57.8-17.5c4.2,0.3,8.7,0.7,12.8,1.8
			c1.8,0.4,7.9,2.1,7.6,4.7c-0.2,1.7-1.9,2.2-3.4,2.3c0,0,0,0,0,0c6.8,1.3,15.3,6.1,18.2,12.7c1.3,2.9,1,6.8-1.9,8.6
			c-1,0.7-2.2,0.9-3.3,0.8c0.7,0.3,1.4,0.5,2,0.8c4.3,1.8,8.4,5.8,11.3,10.6c1.9,3.1,7.7,18.2,0.2,19.3c-1,0.2-2.6-0.4-3.7-2.2
			c-0.9-1.6-1.4-3.1-1.6-4.9c-0.1-1.2-0.1-2.5-0.3-3.6c-0.3-1.7-0.5-3.2-1.9-4.3c-1.2-0.9-2.9-2-4.4-2.3c-0.2-0.1-1.1-0.2-1.3,0
			c-0.1,0.1-0.1,0.5-0.1,0.6c0,0.6,0.4,1.3,0.7,1.8c0.6,1,0.8,2.1,1.4,3.1c1.8,3.5,2.6,7.1,2.6,11c0,2.9-0.3,6.1-1.9,8.6
			c-1.2,1.8-3.9,4.1-6.2,3.5c-1.3-0.4-2.2-1.5-2.7-2.7c-0.2-0.7-0.4-1.4-0.4-2.1c-0.1-1.9,0.5-3.7,0.9-5.5c0.3-1.5,1-3.7,0.2-5
			c-0.9-1.5-2.8-3.9-4.7-4.4c0.2,1.3,1,3.5,1.2,4.1c1.2,4.1,1.1,9.1-2.8,11.7c-2.4,1.5-4.8,1.2-6.4-0.8c-0.2-0.3-0.4-0.6-0.6-1
			c-1.3-9.2-11.3-14.5-24.3-8.4C76,79.7,66,92.9,68,107.6z"/>
		<path class="st2" d="M13.5,108.8c0,53.4,43.3,96.7,96.7,96.7c31.2,0,58.9-14.8,76.6-37.6c-4.5,3.3-12.1,6.9-16.7,8.7
			c-5.7,2.2-12.3,2.1-23.1,1.5c-10.8-0.6-19.9-7.6-24.3-9.4c-4.4-1.9-5.9,0.9-24.6-1.4c-18.7-2.3-27.8-23-27.8-23s0,0,1,3
			c1,3,5.7,13.4,10.9,18.8c5.2,5.5,19.4,12.9,19.4,12.9s-5.7-0.5-14.9-7.1c-9.2-6.6-24.1-27.5-23.1-55.9
			c0.4-13.4,4.7-24.6,10.5-32.8c1.5-2.1,3.5-4.3,5.7-6.4l0,0c1.7-4,0.9-5.7-6.4,0.6c-10.9,9.5-13.9,32.1-13.9,42.8
			c0,10.7-8.1,0.5-5.1-15.6c3-16,0.2-17.2-4-9.5c-4.2,7.7-4.9,17.7-3.3,28.4c1.6,10.7,11.5,27.9,6.5,22.1c-5-5.8-4.3-7.1-6.2-10.2
			c0.3,0.9-1-1.2,0.5,3.3c1.5,4.4,6.6,9.5,5.9,12.5c-0.7,3-3.3-4.9-8.6-4.4c-5.3,0.5,0.5,13,16.7,29.3
			c16.3,16.3,41.4,23.9,41.4,23.9c-26.3,1.2-56.5-36.5-60.7-46c-4.2-9.5,4-10.5,6-8.4c2.1,2.1-3-5.1-9.8-25.6
			c-6.7-20.5-3.3-31.2-1.9-35.3c1.4-4.2,4-7.4,6.3-7.9c2.3-0.5,0.5,5.6,0.7,8.4c0.2,2.8,2.8-4.4,4.6-7.7c3-5.2,6.8-9.3,11.3-12.5
			c7-4.9,15.5-7.5,24.6-8.3c9.6-0.9,19,0.8,25.4,5.9c5.7,4.5,6.6,12,6.4,17.8c1,1.8,2.5,2.3,4.4,1.1c2.9-1.9,3.3-5.7,2.1-9.6
			c-1.2-4-2.1-6.4-0.3-6.5c1.7-0.1,4.5,0.9,7.2,5.3c2.7,4.4-1.2,8.4,0.2,12.2c1.4,3.8,6.9,1.2,7-8c0.1-9.2-4.8-12.4-5-15.7
			c-0.2-3.3,3.4-4,8.7,0.1c5.3,4.1,1.7,7.8,4.8,12.9c3,5.1,4.7-5,1-12.7c-1.2-2.5-4-6.1-6.9-8.7c-4.9-4.5-12.4-6-18.5-8.4
			c-4.4-1.7-0.2-5.9-0.2-5.9s-2.4-1.5-4.5-0.8c-2.1,0.7-2.7,2.9-2,4.6c0.7,1.7,4.4,5.8,4.4,5.8s-4.4-2.6-5.8-5.2
			c-1.4-2.6,0.2-6.3,4.2-7.4c4-1.2,5.8-0.2,11.4,6.5c5.6,6.7,10.7,1.6,8.4-3.7c-2.3-5.3-11.4-10.2-18.8-11.6c-7.4-1.4-9.1-3-0.9-3.5
			c6.9-0.4,1.2-3.6-13.8-4.6c-20.5-1.4-39,5.2-53.8,16.7C27.5,50.6,13.5,79.2,13.5,108.8"/>
		<path class="st3" d="M188.1,165.1c0,0,7-9.1,9.1-16.3c2.1-7.2,3.5-15.6,3.5-15.6s-18.6,27-38.6,32.3c-20,5.3-57,0.5-69.7-12.6
			c-12.8-13-17.7-20.7-20.9-31.9C68.1,110,67.6,103,67.6,103s-1.2,10.5-0.2,22.1c0.9,11.6,10.7,28.6,20,35.3c9.3,6.7,33.2,6,33.2,6
			s3.5,0.2,5.3,2.1C127.9,170.4,162,184.8,188.1,165.1"/>
		<path class="st4" d="M133.8,179.7c-1.1,0.6-0.8,1.6,0.5,3.1c2.6,2.8-5.6,2.1-11.2-1.2c-5.6-3.3-6-8.6-10.7-7.2
			c-4.6,1.4-3.1,5.3-10.9,2c-3.5-1.5-7-2.2-10.4-3.4c-3.4-2.2-6.9-4.7-9-6.8c-5.2-5.5-9.9-15.8-10.9-18.8c-1-3-1-3-1-3
			s9.1,20.7,27.8,23c18.7,2.3,20.2-0.5,24.6,1.4c2.7,1.2,7.2,4.3,12.8,6.6c0.1,0,0.2,0.1,0.3,0.1l0,0c0.1,0.1,0.3,0.1,0.4,0.2l0.1,0
			c0.1,0,0.2,0.1,0.3,0.1l0.2,0.1l0,0c0.1,0,0.2,0.1,0.3,0.1l0.1,0c0.1,0,0.2,0.1,0.3,0.1l0.2,0.1l0.3,0.1l0.2,0.1l0.2,0.1
			c0.1,0,0.2,0.1,0.3,0.1l0.2,0.1c0.1,0,0.2,0.1,0.3,0.1l0.2,0.1c0.1,0,0.2,0.1,0.3,0.1l0.1,0c0.1,0,0.2,0.1,0.4,0.1l0.1,0
			c0.1,0,0.2,0.1,0.3,0.1l0.1,0c0.1,0,0.2,0.1,0.3,0.1l0.1,0c0.1,0,0.3,0.1,0.4,0.1l0.1,0c0.1,0,0.3,0.1,0.4,0.1l0.1,0
			c0.1,0,0.3,0.1,0.4,0.1l0.1,0c0.1,0,0.3,0.1,0.4,0.1l0.1,0c0.1,0,0.3,0.1,0.4,0.1l0.1,0c0.1,0,0.3,0.1,0.4,0.1l0,0
			c0.1,0,0.3,0,0.4,0.1l0,0c0.2,0,0.3,0,0.5,0.1l0,0c0.3,0,0.6,0.1,1,0.1h0c0.2,0,0.3,0,0.5,0l0,0c0.2,0,0.3,0,0.5,0l0.1,0l0.1,0
			l0.1,0l0.1,0l0.1,0l0.1,0l0.1,0l0.1,0h0l0.1,0l0.1,0l0.1,0l0.1,0l0.1,0l0.1,0l0.1,0l0.1,0h0l0,0l0.1,0l0.1,0l0.1,0l0.1,0l0.1,0
			l0.1,0l0.1,0l0,0l0,0l0.1,0l0.1,0l0.1,0l0.1,0l0.1,0l0.1,0l0.2,0l0.1,0l0.1,0l0.1,0l0.1,0l0.1,0l0.1,0l0,0l0,0l0.1,0l0.1,0l0.1,0
			l0.1,0l0.1,0l0.1,0l0.1,0l0.1,0l0.1,0l0.1,0l0.1,0l0.1,0l0.1,0l0.1,0l0.1,0l0,0l0.1,0l0.1,0l0.1,0l0.1,0l0.1,0l0.1,0l0.1,0
			c8.6,0.4,14.3,0.2,19.3-1.7c4.7-1.8,12.2-5.4,16.7-8.7c-1.7,2.2-3.6,4.4-5.5,6.5c-1,0.6-2.3,1.2-3.8,2.1c-5.7,3-17,6.5-29.3,5.8
			C142.5,181.9,137.5,180.8,133.8,179.7"/>
		<path class="st1" d="M50.4,123.7c-0.2-5.1,1.9-1.7,4.5,5c0.9,2.3,1.8,4.9,2.7,7.8c3.7,11.4,12.3,28.6,25.3,38.6
			c13,10-3,3.7-15.1-10.9c-4.1-4.9-6.9-9.6-8.9-13.7C56.3,144.9,50.6,129.9,50.4,123.7"/>
		<path class="st3" d="M54,150.1c2.1,2.5,5,6.3,7.2,11c4,8.6,22.8,22.8,32.6,26.3c9.8,3.5,2.1,3-4.9,1.2c-7-1.9,6.3,7.7,20,9.5
			c9.7,1.3,22.2,2.6,34.9,1.5c-7,2.6-14.4,4.4-22.1,5.3c-6.7-1-14.1-2.6-21.4-5c1.1,0.1,2.2,0.1,3.3,0.1c0,0-25.1-7.7-41.4-23.9
			c-16.3-16.3-22.1-28.8-16.7-29.3c5.3-0.5,7.9,7.4,8.6,4.4C54,150.8,54,150.5,54,150.1"/>
		<path class="st3" d="M63.6,116.3c0-0.1,0-0.2,0-0.2c-7-16.8,17.1-44.9,9.9-38.6c-10.9,9.5-13.9,32.1-13.9,42.8
			c0,10.7-8.1,0.5-5.1-15.6c3-16,0.2-17.2-4-9.5c-4.2,7.7-4.9,17.7-3.3,28.4c0.7,4.6,2.9,10.3,4.8,15c1.3,1.5,2.5,2.9,3.6,4
			c-2.5-6.5-5-14.6-5.1-18.7c0-0.8,0-1.4,0.1-1.8c-0.4-3.1-0.4-5.6,0.6-4.7c1.9,1.6,4,6.7,5.6,9.5c1.6,2.8,4.7,7.7,4.7,0.7
			C61.4,123.9,62.5,119.6,63.6,116.3 M36,69.5c2.1-5.8-5.1-0.5-2.6-8.6c1.9-5.9,0.6-8.7-4.7-0.6C16.1,80,12.6,113.8,17.3,135.9
			c11.7,40.2,48.9,69.7,92.9,69.7c5.4,0,10.6-0.4,15.8-1.3l-22.1-5c0,0-0.9,0.1-2.4,0c1.2,0.4,1.9,0.6,1.9,0.6
			c-3.3,0.1-6.7-0.3-10.1-1.3c-4.6-0.7-10.4-2-16.4-4.5c-14.2-6-28.1-23.9-34.2-32.3c-6-8.4-5.6-19.5-1.6-19.8c4-0.2-0.2-3.5-7-18.4
			c-6.7-14.9-3.7-32.5-3.7-32.5C25.6,81.2,33.9,75.3,36,69.5z"/>
		<path class="st4" d="M95.5,178.3c0,0-14.4-4.8-22.5-21c-8.1-16.3-8.6-23.7-9.3-22c-0.7,1.7,1.7,13.9,5.1,20.6
			C72.2,162.5,81.8,175.5,95.5,178.3"/>
		<path class="st3" d="M182.5,173L182.5,173c-0.4,0.5-0.8,0.9-1.3,1.4c-1,0.6-2.3,1.2-3.8,2.1c-5.7,3-17,6.5-29.3,5.8
			c-5.7-0.3-10.6-1.5-14.3-2.6c-1.1,0.6-0.8,1.6,0.5,3.1c2.6,2.8-5.6,2.1-11.2-1.2c-4.2-2.4-5.5-6.1-7.8-7.1c-1,1.8-0.8,4.6,1,7.8
			c2,3.5,7.2,7.9,3.3,7.8c-3.9-0.1-7.4-0.6-5.2,1.7c2.2,2.3,13.2,4.1,20.7,4.9c6.1,0.7,11.3,0.5,15.8-0.1c2.7-1.2,5.3-2.6,7.9-4.1
			c-6.6,1-16.1,2.1-21.3,1.1c-8.4-1.6-15.5-7.4-10.7-6.5c4.8,0.9,9.9,4.4,19.5,3.3c6.2-0.8,14.2-1.5,19-2
			C171.6,184,177.4,178.8,182.5,173"/>
		<path class="st4" d="M36.5,61.3c1.5,1.6,5.2-0.4,4.4,3.2C40,68.5,37,72.1,35.2,78C33.5,84,35,82.7,34,87.2
			c-1,4.5-3.1,16.5-0.5,27.2c2.7,10.7,7.8,18.5,9.6,22.7c1.9,4.2,2.1,5.5-0.6,6.5c-2.7,1-4.5,8,0.6,16.7c5.1,8.7,16,20.2,22.2,24.5
			c3.3,2.3,8.3,4.6,12.4,6.3c-17.4-11.5-32.1-30.8-34.9-37.2c-4.2-9.5,4-10.5,6-8.4c2.1,2.1-3-5.1-9.8-25.6
			c-6.7-20.5-3.3-31.2-1.9-35.3c1.4-4.2,4-7.4,6.3-7.9c2.3-0.5,0.5,5.6,0.7,8.4c0.2,2.8,2.8-4.4,4.6-7.7c3-5.2,6.8-9.3,11.3-12.5
			c7-4.9,15.5-7.5,24.6-8.3c9.6-0.9,19,0.8,25.4,5.9c5.7,4.5,6.6,12,6.4,17.8c1,1.8,2.5,2.3,4.4,1.1c2.9-1.9,3.3-5.7,2.1-9.6
			c-1.2-4-2.1-6.4-0.3-6.5c1.7-0.1,4.5,0.9,7.2,5.3c2.7,4.4-1.2,8.4,0.2,12.2c1.4,3.8,6.9,1.2,7-8c0.1-9.2-4.8-12.4-5-15.7
			c-0.2-3.3,3.4-4,8.7,0.1c5.3,4.1,1.7,7.8,4.8,12.9c3,5.1,4.7-5,1-12.7c-1.2-2.5-4-6.1-6.9-8.7c-4.9-4.5-12.4-6-18.5-8.4
			c-4.4-1.7-0.2-5.9-0.2-5.9s-2.4-1.5-4.5-0.8c-2.1,0.7-2.7,2.9-2,4.6c0.7,1.7,4.4,5.8,4.4,5.8s-4.4-2.6-5.8-5.2
			c-1.4-2.6,0.2-6.3,4.2-7.4c4-1.2,5.8-0.2,11.4,6.5c5.6,6.7,10.7,1.6,8.4-3.7c-2.3-5.3-11.4-10.2-18.8-11.6c-7.4-1.4-9.1-3-0.9-3.5
			c6.9-0.4,1.2-3.6-13.8-4.6c-20.5-1.4-39,5.2-53.8,16.7C38,42.4,28.6,54.7,22.2,68.6c3.2-6,6.9-12.2,9.4-14.5
			c5.2-4.9,8.1-3.7,6.9-0.3c-1.3,3.4-1.7,3.8-2,6.5C36.5,60.6,36.5,61,36.5,61.3"/>
		<path class="st4" d="M84.4,148.4c8.3,9.1,2.6,3.9,10.9,8.3l3.1,3c0,0,12.4,5.2,17.7,6.7c2.8,0.1,4.6,0,4.6,0s3.5,0.2,5.3,2.1
			c0.7,0.7,6.3,3.3,14.3,5.1c9.6-0.5,32.5-4.1,56.8-24.5c0-0.1,0.1-0.2,0.1-0.3c2.1-7.2,4.6-18.4,4.6-18.4s-23.1,27.3-43,33.1
			c-18.4,5.4-51.4,0.9-66.5-10.5c-14.6-11-17.7-20.7-20.9-31.9c-3.3-11.2-4.3-5.3-4.3-5.3c1,18.3,2.3,18.9,15.9,33.9"/>
		<path class="st0" d="M69,94.5c-0.1,1.4-0.2,2.9-0.2,4.4c0,36.1,30.4,65.4,66.5,65.4c36.1,0,65.4-29.3,65.4-65.4c0-0.6,0-1.2,0-1.7
			l5.5-4.2c0.3,2.5,1.8,3.3,1.8,5.9c0,40.1-32.6,72.7-72.7,72.7c-40.1,0-73.7-32.6-73.7-72.7c0-3.4,0.2-6.7,0.7-10L69,94.5z"/>
		<path class="st5" d="M114.7,23.8c-4-1.2-3.8-2.3,2.7-2.7c2-0.1,2.9-0.5,2.9-0.9c-8.7-0.6-16.3,1.7-15.9,3
			C104.7,24.4,111.7,24,114.7,23.8 M132.1,59.1c-0.2-3.3,3.4-4,8.7,0.1c5.3,4.1,1.7,7.8,4.8,12.9c0.2,0.3,0.4,0.6,0.6,0.8
			c-0.9-1.4-0.9-3.8-0.9-6.2c0-3.5,0.2-4.4-3.5-9.3c-3.7-4.9-13.7-6.5-16.7-3.7c-2.7,2.5,2.3,4,7.3,6.4
			C132.2,59.8,132.2,59.4,132.1,59.1z M122.7,65.3c1.7-0.1,4.5,0.9,7.2,5.3c2.7,4.4-1.2,8.4,0.2,12.2c0.9,2.4,3.4,2.2,5.2-0.6
			c-2,0-3.7-1.3-3.1-3.6c1.4-5.3,0.9-6-1.6-12.1c-2.6-6-11.2-7.2-9.5-1.6c0.2,0.7,0.4,1.3,0.7,1.8C121.7,65.8,122,65.3,122.7,65.3z
			 M124.1,32.6c8.1,5.1,6.3,8.8,10.2,9.3c0.8,0.1,1.6,0.1,2.4,0.1c-1.5,1.9-4.7,2-8-1.9c-5.6-6.7-7.4-7.7-11.4-6.5
			c-4,1.2-5.6,4.9-4.2,7.4c1.4,2.6,5.8,5.2,5.8,5.2s-3.7-4.1-4.4-5.8c-0.7-1.7-0.1-4,2-4.6c2.1-0.7,4.5,0.8,4.5,0.8
			s-4.2,4.2,0.2,5.9c1,0.4,2.1,0.8,3.1,1.1c-1.5,0.1-4.1,0.6-3.8,2.8c0.5,3-6.3,0.5-9.1-4.2c-1-1.7-0.7-4.1,0.5-6.2
			c-0.8-0.1-2.7,0-3.6,2.4c-1.3,3.3,0.7,5.6,0.7,5.6s-1.6-1-2.8-3.1c-1.2-2.1-0.8-6.9,3.7-8.5C113.7,31,120.8,30.4,124.1,32.6z
			 M43.5,76.7c2.3-0.5,0.5,5.6,0.7,8.4c0.2,2.8,2.8-4.4,4.6-7.7c3-5.2,6.8-9.3,11.3-12.5c7-4.9,15.5-7.5,24.6-8.3
			c9.6-0.9,19,0.8,25.4,5.9c5.7,4.5,6.6,12,6.4,17.8c1,1.8,2.5,2.3,4.4,1.1c0.9-0.6,1.6-1.3,2-2.2c-1.3-0.9-3.3-3.4-5.4-9.2
			c-3.5-10-10.7-14.9-19-16.6c4.1,0.2,10.4,1.1,12.9,2.7c4.6,3,4.4-3.8-10.8-6.9c-28.5-5.7-54.2,5.5-61.9,31.9
			C40.1,78.7,41.8,77.1,43.5,76.7z"/>
		<path class="st5" d="M121.2,168.2c-0.4,0.2-0.9,0.5-1.3,0.9c-2.3,2.2-3.8,3.8-4.3,5.4c2.3,1.1,3.6,4.7,7.7,7.1
			c5.6,3.3,13.7,4,11.2,1.2c-1.3-1.5-1.6-2.5-0.5-3.1c3.7,1.1,8.7,2.3,14.3,2.6c12.3,0.7,23.6-2.8,29.3-5.8c1.5-0.8,2.8-1.5,3.8-2.1
			c1.9-2.1,3.8-4.3,5.5-6.5c-4.5,3.3-12.1,6.9-16.7,8.7c-5,1.9-10.7,2.1-19.3,1.7l-0.1,0l-0.1,0l-0.1,0l-0.1,0l-0.1,0l-0.1,0l-0.1,0
			l0,0l-0.1,0l-0.1,0l-0.1,0l-0.1,0l-0.1,0l-0.1,0l-0.1,0l-0.1,0l-0.1,0l-0.1,0l-0.1,0l-0.1,0l-0.1,0l-0.1,0l-0.1,0l0,0l0,0l-0.1,0
			l-0.1,0l-0.1,0l-0.1,0l-0.1,0l-0.1,0l-0.2,0l-0.1,0l-0.1,0l-0.1,0l-0.1,0l-0.1,0l-0.1,0l0,0l0,0l-0.1,0l-0.1,0l-0.1,0l-0.1,0
			l-0.1,0l-0.1,0l-0.1,0l0,0h0l-0.1,0l-0.1,0l-0.1,0l-0.1,0l-0.1,0l-0.1,0l-0.1,0l-0.1,0h0l-0.1,0l-0.1,0l-0.1,0l-0.1,0l-0.1,0
			l-0.1,0l-0.1,0l-0.1,0c-0.2,0-0.3,0-0.5,0l0,0c-0.2,0-0.3,0-0.5,0h0c-0.3,0-0.7-0.1-1-0.1l0,0c-0.2,0-0.3,0-0.5-0.1l0,0
			c-0.2,0-0.3,0-0.4-0.1l0,0c-0.1,0-0.3,0-0.4-0.1l-0.1,0c-0.1,0-0.3-0.1-0.4-0.1l-0.1,0c-0.1,0-0.3-0.1-0.4-0.1l-0.1,0
			c-0.1,0-0.3-0.1-0.4-0.1l-0.1,0c-0.1,0-0.3-0.1-0.4-0.1l-0.1,0c-0.1,0-0.3-0.1-0.4-0.1l-0.1,0c-0.1,0-0.2-0.1-0.3-0.1l-0.1,0
			c-0.1,0-0.2-0.1-0.3-0.1l-0.1,0c-0.1,0-0.2-0.1-0.4-0.1l-0.1,0c-0.1,0-0.2-0.1-0.3-0.1l-0.2-0.1c-0.1,0-0.2-0.1-0.3-0.1l-0.2-0.1
			c-0.1,0-0.2-0.1-0.3-0.1l-0.2-0.1l-0.2-0.1l-0.3-0.1l-0.2-0.1c-0.1,0-0.2-0.1-0.3-0.1l-0.1,0c-0.1,0-0.2-0.1-0.3-0.1l0,0l-0.2-0.1
			c-0.1,0-0.2-0.1-0.3-0.1l-0.1,0c-0.1-0.1-0.3-0.1-0.4-0.2l0,0c-0.1,0-0.2-0.1-0.3-0.1c-5.6-2.3-10.1-5.4-12.8-6.6
			C122.1,168.5,121.6,168.3,121.2,168.2"/>
		<path class="st1" d="M132,94.8c0,0,3.5,3.4,3.6,9.5c0,6.1-3.4,7.7-7.1,7.1c-3.7-0.6-2.9-5.9-1.5-7.9
			C128.4,101.6,131.8,95.9,132,94.8"/>
		<path class="st5" d="M132.2,98.5c0,0,2.8,3.4,1.8,7.9c-1,4.6-8,5.4-6.3,0.6C129.4,102.2,129.8,104,132.2,98.5"/>
		<path class="st4" d="M132.4,98.7c0,0.5-0.1,1.2-0.5,1.9c-1,2.1-2.3,3.3-2.9,6c-0.3,1.5,0.2,2.9,1.3,3.5c1.5-0.4,3.2-1.7,3.7-3.7
			C134.8,102.6,133,99.6,132.4,98.7"/>
		<path class="st1" d="M150.2,48.1c0,0,4-0.5,8,2.6c4,3.1,3.3,6.2,1,8.3c-2.3,2.1-5.3-1.2-5.9-3.1C152.7,53.9,150.8,48.8,150.2,48.1
			"/>
		<path class="st5" d="M152.8,50.1c0,0,3.3,0,5.6,2.7c2.3,2.8-0.6,7.4-2.6,4.1C153.8,53.6,155.1,54.2,152.8,50.1"/>
		<path class="st4" d="M153.1,50.1c0.3,0.3,0.7,0.6,0.9,1.2c0.8,1.6,0.9,3,2.2,4.6c0.7,0.9,1.9,1.3,2.7,0.9c0.5-1.1,0.6-2.7-0.5-4
			C156.6,50.5,153.9,50.2,153.1,50.1"/>
		<path class="st4" d="M112.3,177.8c0,0-2.7,0.7-2.4,3.6c0.2,2.9,2,5.2-1.9,4.4c-3.8-0.8-5.5-4-10.3-2.9c-4.9,1-7.4-0.2-9.6-1.2
			c-2.2-0.9-0.7,1.4,4.1,3.3c4.8,1.9,10.9,4.4,8.2,5.5c-2.7,1-8-0.8-6.2,0.8c1.9,1.6,5.9,2.9,12.9,4.3c7,1.4,14.9,2,16,1.4
			c1.2-0.6-5.3-0.6-9.2-3.3c-3.8-2.7-3.4-5.5-0.8-5.5c2.6,0,5,1.3,4.1-0.5C116.2,186.1,113,180.5,112.3,177.8"/>
		<path class="st6" d="M156.5,89c-2.2,3.8-5.3,4.3-7.9,5.3c-6.3,2.4-2.6,7.6,2.4,6.4c6.3-1.5,11.8-8.4,14.9-15.6
			c1.5,10.4-5.7,20.7-12.6,24.4c-5.5,3-15.2,5.2-16.9,12c-1.4,5.4,3.7,10.2,7.5,4.7c2.7-3.9,5.1-10.4,12.2-13.1
			c-4.2,4.9-1.1,16.8-5.6,28.5c-3.8,9.8-17.6,22.6-42.9,10.8c4.8-7.8-21.3-34.7-1.1-54.2C120.2,85,149.7,93.9,156.5,89z"/>
		
			<radialGradient id="SVGID_1_" cx="-126.7895" cy="165.897" r="82.6792" gradientTransform="matrix(0.6911 0.7228 -0.7228 0.6911 372.0449 66.7465)" gradientUnits="userSpaceOnUse">
			<stop  offset="6.060610e-03" style="stop-color:#F26522"/>
			<stop  offset="0.241" style="stop-color:#F15E22"/>
			<stop  offset="0.6044" style="stop-color:#F04A23"/>
			<stop  offset="1" style="stop-color:#ED2224"/>
		</radialGradient>
		<path class="st7" d="M156.5,89c-2.2,3.8-5.3,4.3-7.9,5.3c-6.3,2.4-2.6,7.6,2.4,6.4c6.3-1.5,11.8-8.4,14.9-15.6
			c1.5,10.4-5.7,20.7-12.6,24.4c-5.5,3-15.2,5.2-16.9,12c-1.4,5.4,3.7,10.2,7.5,4.7c2.7-3.9,5.1-10.4,12.2-13.1
			c-4.2,4.9-1.1,16.8-5.6,28.5c-3.8,9.8-17.6,22.6-42.9,10.8c4.8-7.8-21.3-34.7-1.1-54.2C120.2,85,149.7,93.9,156.5,89z"/>
		<g>
			<defs>
				<filter id="Adobe_OpacityMaskFilter" filterUnits="userSpaceOnUse" x="101.2" y="90.6" width="56.4" height="67.7">
					<feFlood  style="flood-color:white;flood-opacity:1" result="back"/>
					<feBlend  in="SourceGraphic" in2="back" mode="normal"/>
				</filter>
			</defs>
			<mask maskUnits="userSpaceOnUse" x="101.2" y="90.6" width="56.4" height="67.7" id="SVGID_2_">
				<g class="st8">
					
						<image style="overflow:visible;" width="235" height="282" xlink:href="40A1EA42652CA32E.jpg"  transform="matrix(0.24 0 0 0.24 101.2267 90.5867)">
					</image>
				</g>
			</mask>
			<g class="st9">
				<defs>
					<filter id="Adobe_OpacityMaskFilter_1_" filterUnits="userSpaceOnUse" x="103.4" y="92.6" width="52" height="63.5">
						<feFlood  style="flood-color:white;flood-opacity:1" result="back"/>
						<feBlend  in="SourceGraphic" in2="back" mode="normal"/>
					</filter>
				</defs>
				<mask maskUnits="userSpaceOnUse" x="103.4" y="92.6" width="52" height="63.5" id="SVGID_2_">
					<g class="st10">
						
							<image style="overflow:visible;" width="235" height="282" xlink:href="40A1EA42652CA332.jpg"  transform="matrix(0.24 0 0 0.24 101.2267 90.5867)">
						</image>
					</g>
				</mask>
				<g>
					<path class="st11" d="M110,150.8c3.1-4,1.3-9.7-1.4-16c-4.5-10.7-9.5-22.6,1.3-34.1c7.6-8.1,30.4-9.8,37.6-6.6
						c-4.1,2.2-7.4,5.2-7,6.8c1.1,5,11.6,1.3,15-1.6c-0.2,7.3-7.6,12.6-12.7,14.9c-3,1.4-10.4,5.3-10.5,10.4c-0.1,5.5,6.5,8.3,9.9,5
						c3.6-3.4,4.5-6.9,8.8-9.5c-2.6,5.8,4.1,24.1-13.7,33.5c-8.3,4.4-23.2,1.9-26.9-0.5l-1.5-1L110,150.8z"/>
				</g>
			</g>
		</g>
		
			<radialGradient id="SVGID_3_" cx="-125.1669" cy="186.6048" r="58.3954" gradientTransform="matrix(0.6911 0.7228 -0.7228 0.6911 372.0449 66.7465)" gradientUnits="userSpaceOnUse">
			<stop  offset="0" style="stop-color:#FBAA19"/>
			<stop  offset="1" style="stop-color:#F26522"/>
		</radialGradient>
		<path class="st12" d="M110.2,150.7c8.8-11-15.2-29,2.3-47.6c6.7-7.1,21.5-9.3,31.2-8.4c-1.6,1.8-3.8,2.9-5.1,4.6
			c-2.1,2.7-0.4,4.7,2.7,5.3c3,0.5,10.1-1,11.3-2c-3.5,8.7-14.2,9.4-20.3,15.1c-5.9,5.5-1.1,17,8.5,14.8c5.1-1.2,4.8-5.8,7.9-7.3
			c-2.1,3.8,1.4,17-13.7,25.2C127.2,154.8,113.2,152.7,110.2,150.7z"/>
		<g>
			<defs>
				<filter id="Adobe_OpacityMaskFilter_2_" filterUnits="userSpaceOnUse" x="105.4" y="104.3" width="35.6" height="50.3">
					<feFlood  style="flood-color:white;flood-opacity:1" result="back"/>
					<feBlend  in="SourceGraphic" in2="back" mode="normal"/>
				</filter>
			</defs>
			<mask maskUnits="userSpaceOnUse" x="105.4" y="104.3" width="35.6" height="50.3" id="SVGID_4_">
				<g class="st13">
					
						<image style="overflow:visible;" width="166" height="228" xlink:href="40A1EA42652CA335.jpg"  transform="matrix(0.24 0 0 0.24 103.1467 102.1067)">
					</image>
				</g>
			</mask>
			<g class="st14">
				<path class="st15" d="M107.9,134.6c-0.5-1.4-1-2.9-1.5-4.4c-2.2-7.2-0.9-14.2,2.9-18.7c6.1-7.3,17.2-9,27.7-5
					c-22.9,13.9-10.6,34.2,3.9,29.3c0.3,9.3-13.6,26-31.4,15.5C110.8,148.3,112,146.5,107.9,134.6z"/>
			</g>
		</g>
		
			<radialGradient id="SVGID_5_" cx="-138.0251" cy="202.7103" r="45.8322" gradientTransform="matrix(0.6911 0.7228 -0.7228 0.6911 372.0449 66.7465)" gradientUnits="userSpaceOnUse">
			<stop  offset="0" style="stop-color:#F6EB16"/>
			<stop  offset="1" style="stop-color:#FBAA19"/>
		</radialGradient>
		<path class="st16" d="M110.2,150.7c4.3-5.4,0.5-12.5-2-20.5c-6.4-20.8,15.6-24.8,25.9-23.6c-21.6,14.6-9.2,36,4.9,31.1
			C136,144.8,126.8,157.2,110.2,150.7z"/>
		<g>
			<defs>
				<filter id="Adobe_OpacityMaskFilter_3_" filterUnits="userSpaceOnUse" x="110" y="106" width="29.7" height="46.8">
					<feFlood  style="flood-color:white;flood-opacity:1" result="back"/>
					<feBlend  in="SourceGraphic" in2="back" mode="normal"/>
				</filter>
			</defs>
			<mask maskUnits="userSpaceOnUse" x="110" y="106" width="29.7" height="46.8" id="SVGID_6_">
				<g class="st17">
					
						<image style="overflow:visible;" width="141" height="212" xlink:href="40A1EA42652CA336.jpg"  transform="matrix(0.24 0 0 0.24 107.9467 104.0267)">
					</image>
				</g>
			</mask>
			<g class="st18">
				<path class="st19" d="M110,150.8c8.3-0.5,10.5-6.7,6.6-15.5c-8.8-19.9,7.6-28.3,19.3-29.3c-22.9,15.5-11.1,36.2,3.8,31
					C136.8,145.4,127.6,157.6,110,150.8z"/>
			</g>
		</g>
		
			<radialGradient id="SVGID_7_" cx="-131.5401" cy="202.7103" r="42.9653" gradientTransform="matrix(0.6911 0.7228 -0.7228 0.6911 372.0449 66.7465)" gradientUnits="userSpaceOnUse">
			<stop  offset="1.212120e-02" style="stop-color:#FCF6B7"/>
			<stop  offset="1" style="stop-color:#F6EB16"/>
		</radialGradient>
		<path class="st20" d="M110.2,150.7c10.2,0.7,13.9-6.8,9.9-15c-8-16.6,5.2-26.6,14.1-29.1c-21.6,14.6-9.2,36,4.9,31.1
			C136,144.8,126.8,157.2,110.2,150.7z"/>
		<g>
			<defs>
				<filter id="Adobe_OpacityMaskFilter_4_" filterUnits="userSpaceOnUse" x="107.4" y="138.2" width="31.2" height="17">
					<feFlood  style="flood-color:white;flood-opacity:1" result="back"/>
					<feBlend  in="SourceGraphic" in2="back" mode="normal"/>
				</filter>
			</defs>
			<mask maskUnits="userSpaceOnUse" x="107.4" y="138.2" width="31.2" height="17" id="SVGID_8_">
				<g class="st21">
					
						<image style="overflow:visible;" width="147" height="89" xlink:href="40A1EA42652CA334.jpg"  transform="matrix(0.24 0 0 0.24 105.3067 135.9467)">
					</image>
				</g>
			</mask>
			<g class="st22">
				<path class="st23" d="M107.4,152.7c10.6,0.1,22.3-8.1,31.2-14.5C134.2,152.1,121,159.3,107.4,152.7z"/>
			</g>
		</g>
		<path class="st24" d="M107.4,152.7c10.7,3.9,24.8-6.4,30.4-13.7C132,152.8,119.4,158.2,107.4,152.7z"/>
		<g>
			<path class="st0" d="M107.3,211C51.5,211,6,165.6,6,109.7C6,53.9,51.5,8.4,107.3,8.4s101.3,45.4,101.3,101.3
				C208.6,165.6,163.2,211,107.3,211z M107.3,15.7c-51.9,0-94,42.2-94,94c0,51.9,42.2,94,94,94s94-42.2,94-94
				C201.4,57.9,159.2,15.7,107.3,15.7z"/>
		</g>
		<path class="st25" d="M133.2,33.5c35.5,0,64.5,28.4,65.4,63.7l-2,1.7l2-1.7c0,0.6,0,1.2,0,1.7c0,36.1-29.3,65.4-65.4,65.4
			c-36.1,0-65.4-29.3-65.4-65.4c0-1.5,0.1-2.9,0.2-4.4l2,1.7l-2-1.7C70.2,60.5,98.6,33.5,133.2,33.5z"/>
		<path class="st1" d="M82.1,71.1c0,0-21.6,5.6-20.2,20.3c5.9,4.5,6.1,4.5,6.1,4.5s7.8-18.8,13.5-19.4c4.8-5.7,0.7-5.4,0.7-5.4"/>
	</g>
</g>
</svg>
